<?xml version="1.0" encoding="utf-8"?>
<!-- Generator: Adobe Illustrator 22.1.0, SVG Export Plug-In . SVG Version: 6.00 Build 0)  -->
<svg version="1.1" id="Layer_1" xmlns="http://www.w3.org/2000/svg" xmlns:xlink="http://www.w3.org/1999/xlink" x="0px" y="0px"
	 viewBox="0 0 800.2 389.1" style="enable-background:new 0 0 800.2 389.1;" xml:space="preserve">
<style type="text/css">
	.st0{display:none;fill:none;stroke:#000000;stroke-width:10;stroke-linecap:round;}
	.st1{fill:none;stroke:#000000;stroke-width:10;stroke-linecap:round;}
</style>
<path class="st0" d="M211.4-298.8c85.2-39.8,159.2-67,172.5-48c24.8,35.4-175,210.6-163.5,223.5c12.3,13.7,249.6-174.4,253.5-169.5
	c3.3,4.1-174.4,123.8-154.5,168c16.1,35.8,164.5,27.9,180-22.5c15.6-50.8-105.3-140.7-130.5-123c-29.8,20.9,57.9,202.7,82.5,196.5
	c22.9-5.8-34.3-166.9,46.5-252c33.6-35.4,80-45.9,111-49.5"/>
<path class="st0" d="M115.7,107c-61,182.9-57.4,227.7-43,235c10.3,5.3,25.3-8.9,128-97c89.4-76.7,97.6-82.7,95.4-86.7
	c-7.5-13.7-132,1.5-148.4,76.7c-9.6,43.9,19.8,98.6,52,103c23.2,3.2,45.8-21.9,91-72c27.2-30.2,25.7-34.3,46-55
	c51.8-52.8,99.4-64.6,97-71c-3.1-8.4-93.2-8-134,52c-24.9,36.6-32.8,97.4-4,120c29.5,23.1,83.8-4.4,108-22
	c36.6-26.6,50.4-64,57.3-83.2c18.5-52.2,13.9-104.6,11.7-104.8c-3.4-0.2-26,121.2,2,133c13.6,5.8,34.7-16.4,42-24
	c41.3-43.4,38.3-114.3,34-115c-7.2-1.1-59.4,180.1-27,197c21.7,11.4,83.5-49.9,115-115c19.5-40.2,36.2-95.4,27-100
	c-10.1-5-63.8,44.6-61,105c1.8,37.8,26.3,93,75,97c41.7,3.5,85.3-31.8,92-84"/>
<path class="st0" d="M79.5,135.6c-3.1,15.2-31.7,158.4,6,174c21.8,9,60.5-27,96-60c24.5-22.8,55.9-52.1,49.5-63
	c-7.5-12.7-70.4-7.7-87,30c-15.6,35.5,16.8,83.7,48,88.5c44.9,6.9,90.6-93.7,84-99c-6.3-5-44.1,15.3-45,39
	c-0.9,23.1,26.2,50,48,46.5c14.6-2.3,23.2-21.5,29.3-34.4c4.3-9,6.4-16.6,8.2-24.1c8.1-34.4,9.8-67.4,9-67.5
	c-1.4-0.1-17.3,101.3-4.5,105c12.6,3.6,51.3-88.4,51-88.5c-0.3-0.1-57.8,94.4-42,108c17.6,15.2,130-68.6,120-90
	c-4.6-9.9-36.6-9.5-54,6c-28.3,25.1-14.6,87.1,3,91.5c6.5,1.6,10.5-5.3,27-19.5c46.4-39.9,79.8-40.7,81-61.5
	c0.6-10.9-8-22.2-16.5-24c-14.9-3.1-35.6,21.5-39,46.5c-1.8,13.6,0.2,36.9,15,45c17.8,9.8,48.7-5.4,63-27
	c22.7-34.2-2.1-75.5,21-91.5c8.9-6.2,21.9-6.4,27.5-6.5c4.7-0.1,23.5-0.4,32.5,8c17.7,16.5,3.2,71.1-28.5,105
	c-35.2,37.6-88.1,46.3-90,42c-2.4-5.4,71-45.7,138-72c56.4-22.2,107.2-33.9,146.6-40.5"/>
<path class="st0" d="M235.2,121.1c8.2,180.2,21.7,221.6,33.3,222.3c10.1,0.6,11.6-30.2,49.9-78.5c17.6-22.2,30-31.7,29.7-48.7
	c-0.4-23.2-24.1-46.5-34.5-42.8c-24.1,8.6-26.9,131.4,7.1,143.8c18.7,6.8,45.1-21.3,64.2-41.6c32.7-34.8,64-88.9,52.3-99.9
	c-9.7-9.1-56.2,5.6-65.4,41.6c-8.7,33.9,20.6,67.4,51.1,71.3c35.8,4.6,59.9-33.1,63-38c11.7-18.9,12.3-37.6,12.4-46.4
	c0.7-42.3-23.9-81.1-27.9-79.6c-5.2,1.9,5.6,78.8,40.4,89.2c15.4,4.6,32.8-4.7,41.6-15.5c23.5-28.7-13.3-95.8-20.2-93.9
	c-9.3,2.5-0.5,133.7,44,147.4c31.4,9.7,79.7-29.1,98.7-73.7c3.1-7.2,25.1-59.7,2.4-93.9C629.6,12,444.3,113.6,170,72.4
	c-53.1-8-95.5-19.2-121.3-26.7"/>
<path class="st1" d="M203.2,78.2L157.3,185l-48.6,113.2c0,0,580.8,70.5,620.3-120.3"/>
<line class="st1" x1="225.5" y1="194.5" x2="157.3" y2="185"/>
<path class="st1" d="M283.9,92c-75.9,125.5-117.7,204.9-107,212.6c13.5,9.7,115.7-91.7,105.3-106.1c-4.6-6.3-32.7,1.8-48.1,20.6
	c-19.1,23.4-18.3,63.3-1.7,79c27.3,25.9,91.1-9,111-19.9c3.9-2.2,18.6-10.3,35-24.8c12-10.5,43.2-40.5,37.8-49.8
	c-8.6-14.7-85.1-15-97.9,24.1c-7.8,23.7,10.7,54.1,34.4,65.3c33.9,16.1,73.2-9.5,91.1-30.9c14.2-17.1,11.8-27.8,20.6-39.5
	c15.2-20.2,56.3-33.7,171.8-1.7"/>
</svg>
